<svg
  xmlns="http://www.w3.org/2000/svg"
  width="20px"
  height="20px"
  viewBox="0 -960 960 960"
  fill="currentColor"
>
  <path
    d="M424-296
      l282-282
      -56-56
      -226 226
      -114-114
      -56 56
      170 170Zm56 216
      q-83 0-156-31.5T197-197
      q-54-54-85.5-127T80-480
      q0-83 31.5-156T197-763
      q54-54 127-85.5T480-880
      q83 0 156 31.5T763-763
      q54 54 85.5 127T880-480
      q0 83-31.5 156T763-197
      q-54 54-127 85.5T480-80Zm0-80
      q134 0 227-93t93-227
      q0-134-93-227t-227-93
      q-134 0-227 93t-93 227
      q0 134 93 227t227 93Zm0-320Z"
  />
</svg>
