<svg
  xmlns="http://www.w3.org/2000/svg"
  width="20px"
  height="20px"
  viewBox="0 -960 960 960"
  fill="currentColor"
>
  <path
    d="M479.96-144Q340-144 242-242t-98-238q0-140 97.93-238t237.83-98
       q13.06 0 25.65 1 12.59 1 25.59 3
       -39 29-62 72t-23 92q0 85 58.5 143.5T648-446
       q49 0 92-23t72-62q2 13 3 25.59t1 25.65
       q0 139.9-98.04 237.83t-238 97.93Zm.04-72
       q82 0 148.78-47.07Q695.55-310.15 727-386
       q-20 5-39.67 8.5Q667.67-374 648-374
       q-113.86 0-193.93-80.07Q374-534.14 374-648
       q0-19.67 3.5-39.33Q381-707 386-727
       q-75.85 31.45-122.93 98.22Q216-562 216-480
       q0 110 77 187t187 77Zm-14-250Z"
  />
</svg>
