<svg
  xmlns="http://www.w3.org/2000/svg"
  width="20px"
  height="20px"
  viewBox="0 -960 960 960"
  fill="currentColor"
>
  <path
    d="M480-360
      q50 0 85-35t35-85q0-50-35-85t-85-35
      q-50 0-85 35t-35 85
      q0 50 35 85t85 35Zm-.23 72
      Q400-288 344-344.23q-56-56.22-56-136
      Q288-560 344.23-616q56.22-56 136-56
      Q560-672 616-615.77q56 56.22 56 136
      Q672-400 615.77-344q-56.22 56-136 56ZM216-444
      H48v-72h168v72Zm696 0H744v-72h168v72ZM444-744
      v-168h72v168h-72Zm0 696v-168h72v168h-72ZM269-642
      166-742l51-55 102 104-50 51Zm474 475L642-268l49-51
      103 101-51 51ZM640-691l102-101 51 49-100 103-53-51ZM163-217
      l105-99 49 47-98 104-56-52Zm317-263Z"
  />
</svg>
