<svg
  xmlns="http://www.w3.org/2000/svg"
  width="24px"
  height="24px"
  viewBox="0 -960 960 960"
  fill="currentColor"
>
  <path
    d="M216-305
      q8-3 16.87-5 8.86-2 19.13-2h36v-480h-36
      q-15.3 0-25.65 11Q216-770 216-756v451Zm36 209
      q-45 0-76.5-31.5T144-204v-552
      q0-45 31.5-76.5T252-864h268v72H360v480h240v-128h72v200H252
      q-15.3 0-25.65 10.29Q216-219.42 216-204.21t10.35 25.71
      Q236.7-168 252-168h492v-312h72v384H252Zm-36-209v-487 487Zm480-175
      q0-90.33 62.84-153.16Q821.67-696 912-696
      q-90.33 0-153.16-62.84Q696-821.67 696-912
      q0 90.33-62.84 153.16Q570.33-696 480-696
      q90.33 0 153.16 62.84Q696-570.33 696-480Z"
  />
</svg>
