<svg
  xmlns="http://www.w3.org/2000/svg"
  width="24px"
  height="24px"
  viewBox="0 -960 960 960"
  fill="currentColor"
>
  <path
    d="M620-520
      q25 0 42.5-17.5T680-580
      q0-25-17.5-42.5T620-640
      q-25 0-42.5 17.5T560-580
      q0 25 17.5 42.5T620-520Zm-280 0
      q25 0 42.5-17.5T400-580
      q0-25-17.5-42.5T340-640
      q-25 0-42.5 17.5T280-580
      q0 25 17.5 42.5T340-520Zm140 100
      q-68 0-123.5 38.5T276-280h66
      q22-37 58.5-58.5T480-360
      q43 0 79.5 21.5T618-280h66
      q-25-63-80.5-101.5T480-420Zm0 340
      q-83 0-156-31.5T197-197
      q-54-54-85.5-127T80-480
      q0-83 31.5-156T197-763
      q54-54 127-85.5T480-880
      q83 0 156 31.5T763-763
      q54 54 85.5 127T880-480
      q0 83-31.5 156T763-197
      q-54 54-127 85.5T480-80Zm0-400Zm0 320
      q134 0 227-93t93-227
      q0-134-93-227t-227-93
      q-134 0-227 93t-93 227
      q0 134 93 227t227 93Z"
  />
</svg>